HIERARCHY
ROOT Hips
{
  OFFSET 3.13124 94.3669 -3.18751
  CHANNELS  6 Xposition Yposition Zposition Zrotation Xrotation Yrotation
  JOINT LeftUpLeg
  {
    OFFSET 8.64259 1.95398 -2.38835
    CHANNELS 3 Zrotation Xrotation Yrotation
    JOINT LeftLeg
    {
      OFFSET 43.7702 0 0
      CHANNELS 3 Zrotation Xrotation Yrotation
      JOINT LeftFoot
      {
        OFFSET 40.6238 0 0
        CHANNELS 3 Zrotation Xrotation Yrotation
        JOINT LeftToeBase
        {
          OFFSET 12.7242 0 0
          CHANNELS 3 Zrotation Xrotation Yrotation
          End Site
          {
            OFFSET 0 0 0
          }
        }
      }
    }
  }
  JOINT RightUpLeg
  {
    OFFSET -8.2249 1.95398 -2.59336
    CHANNELS 3 Zrotation Xrotation Yrotation
    JOINT RightLeg
    {
      OFFSET 43.5653 0 0
      CHANNELS 3 Zrotation Xrotation Yrotation
      JOINT RightFoot
      {
        OFFSET 40.6238 0 0
        CHANNELS 3 Zrotation Xrotation Yrotation
        JOINT RightToeBase
        {
          OFFSET 12.7242 0 0
          CHANNELS 3 Zrotation Xrotation Yrotation
          End Site
          {
            OFFSET 0 0 0
          }
        }
      }
    }
  }
  JOINT Spine
  {
    OFFSET 0.165834 0.87714 6.61349
    CHANNELS 3 Zrotation Xrotation Yrotation
    JOINT Spine1
    {
      OFFSET 7.38962 1.71661e-005 0
      CHANNELS 3 Zrotation Xrotation Yrotation
      JOINT Spine2
      {
        OFFSET 11.9445 1.14441e-005 0
        CHANNELS 3 Zrotation Xrotation Yrotation
        JOINT Spine3
        {
          OFFSET 14.7254 4.19617e-005 0
          CHANNELS 3 Zrotation Xrotation Yrotation
          JOINT Spine4
          {
            OFFSET 10.9679 0 0
            CHANNELS 3 Zrotation Xrotation Yrotation
            JOINT RightShoulder
            {
              OFFSET 2.46616 -1.6653 3.69651
              CHANNELS 3 Zrotation Xrotation Yrotation
              JOINT RightArm
              {
                OFFSET 13.0012 0 0
                CHANNELS 3 Zrotation Xrotation Yrotation
                JOINT RightForeArm
                {
                  OFFSET 28.7848 1.52588e-005 0
                  CHANNELS 3 Zrotation Xrotation Yrotation
                  JOINT RightHand
                  {
                    OFFSET 26.5688 1.52588e-005 0
                    CHANNELS 3 Zrotation Xrotation Yrotation
                    End Site
                    {
                      OFFSET 0 0 0
                    }
                  }
                }
              }
            }
            JOINT LeftShoulder
            {
              OFFSET 2.38034 -1.29275 -3.75231
              CHANNELS 3 Zrotation Xrotation Yrotation
              JOINT LeftArm
              {
                OFFSET 16.3182 6.10352e-005 0
                CHANNELS 3 Zrotation Xrotation Yrotation
                JOINT LeftForeArm
                {
                  OFFSET 27.0901 0 0
                  CHANNELS 3 Zrotation Xrotation Yrotation
                  JOINT LeftHand
                  {
                    OFFSET 24.5451 1.52588e-005 0
                    CHANNELS 3 Zrotation Xrotation Yrotation
                    End Site
                    {
                      OFFSET 0 0 0
                    }
                  }
                }
              }
            }
            JOINT Neck
            {
              OFFSET 5.0226 -0.0266342 0
              CHANNELS 3 Zrotation Xrotation Yrotation
              JOINT Head
              {
                OFFSET 6.69363 2.86102e-005 0
                CHANNELS 3 Zrotation Xrotation Yrotation
                End Site
                {
                  OFFSET 0 0 0
                }
              }
            }
          }
        }
      }
    }
  }
}
MOTION
Frames:	11
Frame Time:	0.0333333
-3.65139 97.5323 -40.4414 177.417 -89.9984 177.466 -171.43 2.88971 93.693 -8.55695 8.51497 0.932728 63.1824 1.68099 0.873711 28.7808 5.82464e-006 9.93097e-007 177.595 2.02185 85.7124 -7.48878 -2.38628 -0.131566 62.6685 -1.38146 -0.703224 28.7808 1.64481e-005 3.63149e-005 0.00431936 6.34464 -90.0545 14.1935 3.14556e-006 5.60982e-006 2.52251 5.05883e-007 -0.00813388 -20.0127 -2.1444e-006 8.81078e-006 -1.59028e-015 6.55174e-019 9.88827e-019 100.875 -18.5212 -85.3682 2.66854 41.5259 -21.2632 -1.72968 0.314161 -1.96846 -5.37983 -0.320016 -0.0162402 -78.9324 -21.4516 94.4336 15.1842 -41.1971 -8.48472 0.845014 41.2845 -5.65413 -0.172283 -0.00546416 0.707877 1.75186 -0.00226879 0.00666085 -7.41222 -0.00169351 -0.00348557 
-3.7188 97.5196 -40.453 -134.348 -89.9642 -134.299 -171.411 2.86672 93.731 -8.54506 8.64936 0.995415 63.2245 1.50872 0.77499 28.7808 5.82464e-006 9.93097e-007 177.646 2.30897 85.7478 -8.11903 -2.3961 -0.131567 62.964 -1.41109 -0.724115 28.7808 1.64481e-005 3.63149e-005 0.00416376 6.34465 -90.053 14.1935 3.14556e-006 5.60982e-006 2.52251 5.05883e-007 -0.00813388 -20.0127 -2.1444e-006 8.81078e-006 1.59028e-015 0 -3.10601e-018 100.916 -18.518 -85.2013 3.07259 41.5842 -21.6832 -1.86039 0.314172 -1.91139 -5.37983 -0.320016 -0.0162402 -78.966 -21.4797 94.4127 15.1319 -41.1435 -8.50663 0.831574 41.2442 -5.68179 -0.306976 -0.00546405 0.794157 1.72185 -0.0387756 0.00613868 -7.43027 -0.0278317 -0.0566157 
-3.7893 97.5134 -40.4672 -107.551 -89.9474 -107.492 -171.402 2.86015 93.7786 -8.48953 8.66031 1.02089 63.2201 1.45692 0.746552 28.7808 5.82464e-006 9.93097e-007 177.671 2.34565 85.8063 -8.15652 -2.38379 -0.131565 62.9907 -1.43796 -0.739375 28.7808 1.64481e-005 3.63149e-005 0.00512203 6.34454 -90.0647 14.1935 3.14556e-006 5.60982e-006 2.52251 5.05883e-007 -0.00813388 -20.0127 -2.1444e-006 8.81078e-006 -1.59028e-015 1.2424e-017 4.65902e-018 100.923 -18.6017 -85.231 2.94193 41.5165 -21.565 -1.79024 0.314167 -1.93936 -5.37983 -0.320016 -0.0162402 -78.9425 -21.5271 94.4107 15.0638 -41.1334 -8.56406 0.787783 41.0223 -5.62423 -0.454313 -0.00535347 0.698436 1.68628 -0.0751554 -0.000321889 -7.40328 -0.038004 -0.0720984 
-3.86899 97.5082 -40.4803 -120.867 -89.9106 -120.841 -171.387 2.89584 93.7909 -8.60678 8.64268 1.03179 63.2308 1.42438 0.725577 28.7808 5.82464e-006 9.93097e-007 177.726 2.65851 85.8193 -8.85296 -2.39079 -0.131566 63.317 -1.46617 -0.760627 28.7808 1.64481e-005 3.63149e-005 0.00328332 6.34474 -90.0415 14.1935 4.52825e-005 2.2203e-005 2.52251 4.38276e-005 -0.00813388 -20.0127 3.29889e-005 3.70829e-005 -1.76097e-011 3.52139e-005 2.86575e-005 100.908 -18.7134 -85.2405 2.89919 41.5362 -21.5666 -1.79065 0.314171 -1.91834 -5.37983 -0.320016 -0.0162402 -78.9028 -21.4662 94.5117 14.8078 -41.0515 -8.74059 0.799518 41.0145 -5.67492 -0.465126 -0.00393686 0.828583 1.62221 -0.0956085 0.0116968 -7.38557 -0.0525446 -0.103553 
-3.94672 97.5022 -40.4985 -127.366 -89.9183 -127.344 -171.369 2.9492 93.8286 -8.66901 8.6514 1.03975 63.2167 1.39627 0.708528 28.7808 5.82464e-006 9.93097e-007 177.763 2.76396 85.8646 -9.06801 -2.3761 -0.131565 63.4232 -1.52932 -0.798675 28.7808 1.64481e-005 3.63149e-005 0.00233753 6.34478 -90.0346 14.1929 -0.000842568 -0.000355084 2.52193 -0.000852133 -0.00813388 -20.0132 -0.000701309 -0.000592721 -0.000576401 -0.000697712 -0.000595216 100.932 -18.8038 -85.1507 2.94164 41.534 -21.6254 -1.79928 0.31417 -1.92185 -5.37983 -0.320016 -0.0162402 -78.9619 -21.5037 94.3947 14.8748 -41.0756 -8.67511 0.811183 41.1875 -5.60563 -0.461344 -0.00821978 0.561678 1.65303 -0.123412 -0.10947 -7.45366 -0.0444084 0.0444206 
-4.02926 97.4962 -40.5174 -132.325 -89.9068 -132.305 -171.35 2.97172 93.8724 -8.69951 8.68264 1.05784 63.2169 1.33857 0.675313 28.7808 5.82464e-006 9.93097e-007 177.79 2.76284 85.9188 -9.0774 -2.32974 -0.13156 63.4491 -1.54486 -0.807737 28.7808 1.64481e-005 3.63149e-005 -0.00771467 6.34474 -90.0413 14.1842 -0.0237813 -0.00897506 2.51327 -0.024145 -0.00739155 -20.0219 -0.0199868 -0.0157059 -0.00924106 -0.0199807 -0.0157064 100.893 -18.7716 -85.3038 2.94468 41.5475 -21.5355 -1.81873 0.314173 -1.90211 -5.37983 -0.320016 -0.0162402 -78.9139 -21.57 94.4816 14.825 -41.1327 -8.73025 0.926004 41.3059 -5.62646 -0.643434 -0.0169535 0.503475 1.61168 -0.0323 0.00184638 -7.38029 -0.028064 -0.0156921 
-4.10239 97.4876 -40.5384 -153.357 -89.9177 -153.374 -171.348 3.02021 93.8736 -8.77986 8.67882 1.06017 63.2238 1.34029 0.67539 28.7808 5.82464e-006 9.93097e-007 177.825 2.98016 85.9293 -9.5415 -2.29205 -0.131557 63.6779 -1.60335 -0.844126 28.7808 1.64481e-005 3.63149e-005 -0.0111703 6.34482 -90.0243 14.1831 -0.0261506 0.00239607 2.51211 -0.0260109 0.00353403 -20.023 -0.0256584 -0.00556804 -0.0103996 -0.0256536 -0.0055719 100.885 -18.888 -85.3123 2.87392 41.5668 -21.4371 -1.82415 0.314175 -1.89248 -5.37983 -0.320016 -0.0162402 -78.9308 -21.533 94.4424 14.8167 -41.1111 -8.73234 0.854278 41.2201 -5.59427 -0.409201 -0.00773898 0.458271 1.50641 -0.0287552 0.0338723 -7.24605 -0.0212437 -0.128803 
-4.17683 97.4867 -40.5438 -173.908 -89.8588 -173.914 -171.307 3.00168 93.9319 -8.84692 8.76814 1.08425 63.2296 1.34796 0.678691 28.7808 5.82464e-006 9.93097e-007 177.865 3.02735 85.9782 -9.79499 -2.28272 -0.131556 63.7896 -1.63887 -0.865734 28.7808 1.64481e-005 3.63149e-005 -0.0138051 6.34486 -90.014 14.17 -0.0300885 -0.000202208 2.49904 -0.0300759 0.00111338 -20.0361 -0.028739 -0.00925962 -0.0234749 -0.0287439 -0.00926723 100.872 -18.9366 -85.3361 2.84661 41.5673 -21.3469 -1.82329 0.314174 -1.89962 -5.37983 -0.320016 -0.0162402 -78.965 -21.5439 94.3709 14.8629 -41.152 -8.68527 0.893231 41.4145 -5.57782 -0.3555 -0.0055464 0.468347 1.46255 -0.0297536 -0.133247 -7.266 -0.0086742 0.114022 
-4.24404 97.4737 -40.5793 152.866 -89.9163 152.839 -171.32 3.11276 93.9327 -8.86884 8.80053 1.1043 63.2283 1.26709 0.632512 28.7808 5.82464e-006 9.93097e-007 177.888 3.16842 86.0103 -9.92666 -2.18788 -0.131547 63.8767 -1.66091 -0.878929 28.7808 1.64481e-005 3.63149e-005 -0.0159505 6.34486 -90.0115 14.1895 -0.0298619 0.0104264 2.51852 -0.0297435 0.0118336 -20.0166 -0.0338748 0.000215244 -0.00398755 -0.0338824 0.000205289 100.858 -19.0002 -85.3733 2.78192 41.5826 -21.2099 -1.82516 0.314174 -1.89978 -5.37983 -0.320016 -0.0162402 -78.996 -21.5088 94.2906 14.8566 -41.1788 -8.65078 0.932327 41.394 -5.62877 -0.259277 -0.0037161 0.674022 1.24805 -0.0632321 -0.151898 -7.06977 -0.0309419 0.0951262 
-4.30215 97.4782 -40.5848 155.001 -89.8368 154.979 -171.283 3.08228 93.9837 -8.92487 8.89767 1.11968 63.2269 1.2483 0.620782 28.7808 5.82464e-006 9.93097e-007 177.915 3.18174 86.0451 -10.1206 -2.17781 -0.1315 63.9461 -1.71335 -0.909345 28.7808 1.64481e-005 3.63149e-005 -0.0170601 6.34487 -90.0056 14.1764 -0.0281042 0.00942904 2.50542 -0.0278028 0.010914 -20.0297 -0.0315089 -0.00125946 -0.0170987 -0.031515 -0.00125706 100.836 -19.0249 -85.4252 2.74961 41.5976 -21.1103 -1.83851 0.314177 -1.88385 -5.37983 -0.320016 -0.0162402 -79.0179 -21.5174 94.2467 14.8461 -41.2031 -8.66288 0.94473 41.4807 -5.58604 -0.25318 -0.0020779 0.593396 1.18784 -0.0744502 -0.167914 -7.09605 -0.0478128 0.123367 
-4.35454 97.4727 -40.6161 149.617 -89.847 149.582 -171.28 3.14134 93.9954 -8.9646 8.85942 1.10557 63.2364 1.26257 0.629204 28.7808 5.82464e-006 9.93097e-007 177.927 3.22029 86.0678 -10.1382 -2.16213 -0.1307 63.9851 -1.73383 -0.921154 28.7808 1.64481e-005 3.63149e-005 -0.0135858 6.34487 -90.0064 14.188 -0.0271632 0.00979259 2.51709 -0.0267347 0.0111045 -20.0181 -0.0285759 -0.00101136 -0.00542181 -0.0285788 -0.00100443 100.823 -19.0266 -85.4563 2.72901 41.6064 -21.0359 -1.84263 0.314176 -1.88579 -5.37983 -0.320016 -0.0162402 -79.0205 -21.5358 94.24 14.8071 -41.1621 -8.6886 0.928139 41.4132 -5.61592 -0.291681 -0.00058544 0.643627 1.0306 -0.104929 -0.170343 -7.01993 -0.0707906 0.16186 
